<mxfile host="app.diagrams.net" modified="2024-01-16T10:06:08.314Z" agent="Mozilla/5.0 (X11; Linux x86_64; rv:121.0) Gecko/20100101 Firefox/121.0" etag="y0tzdVx8xsrfd9iFAekR" version="22.1.18" type="github">
  <diagram name="Page-1" id="2YBvvXClWsGukQMizWep">
    <mxGraphModel dx="1195" dy="610" grid="1" gridSize="10" guides="1" tooltips="1" connect="1" arrows="1" fold="1" page="1" pageScale="1" pageWidth="850" pageHeight="1100" math="0" shadow="0">
      <root>
        <mxCell id="0" />
        <mxCell id="1" parent="0" />
        <mxCell id="aM9ryv3xv72pqoxQDRHE-1" value=":Agent" style="shape=umlLifeline;perimeter=lifelinePerimeter;whiteSpace=wrap;html=1;container=0;dropTarget=0;collapsible=0;recursiveResize=0;outlineConnect=0;portConstraint=eastwest;newEdgeStyle={&quot;edgeStyle&quot;:&quot;elbowEdgeStyle&quot;,&quot;elbow&quot;:&quot;vertical&quot;,&quot;curved&quot;:0,&quot;rounded&quot;:0};" parent="1" vertex="1">
          <mxGeometry x="60" y="40" width="100" height="260" as="geometry" />
        </mxCell>
        <mxCell id="aM9ryv3xv72pqoxQDRHE-2" value="" style="html=1;points=[];perimeter=orthogonalPerimeter;outlineConnect=0;targetShapes=umlLifeline;portConstraint=eastwest;newEdgeStyle={&quot;edgeStyle&quot;:&quot;elbowEdgeStyle&quot;,&quot;elbow&quot;:&quot;vertical&quot;,&quot;curved&quot;:0,&quot;rounded&quot;:0};" parent="aM9ryv3xv72pqoxQDRHE-1" vertex="1">
          <mxGeometry x="45" y="70" width="10" height="150" as="geometry" />
        </mxCell>
        <mxCell id="aM9ryv3xv72pqoxQDRHE-5" value=":DiscoverySystem" style="shape=umlLifeline;perimeter=lifelinePerimeter;whiteSpace=wrap;html=1;container=0;dropTarget=0;collapsible=0;recursiveResize=0;outlineConnect=0;portConstraint=eastwest;newEdgeStyle={&quot;edgeStyle&quot;:&quot;elbowEdgeStyle&quot;,&quot;elbow&quot;:&quot;vertical&quot;,&quot;curved&quot;:0,&quot;rounded&quot;:0};" parent="1" vertex="1">
          <mxGeometry x="190" y="40" width="100" height="260" as="geometry" />
        </mxCell>
        <mxCell id="cc4XYzGoG_5n-Fmv61_O-27" value="" style="html=1;points=[];perimeter=orthogonalPerimeter;outlineConnect=0;targetShapes=umlLifeline;portConstraint=eastwest;newEdgeStyle={&quot;edgeStyle&quot;:&quot;elbowEdgeStyle&quot;,&quot;elbow&quot;:&quot;vertical&quot;,&quot;curved&quot;:0,&quot;rounded&quot;:0};" parent="aM9ryv3xv72pqoxQDRHE-5" vertex="1">
          <mxGeometry x="45" y="130" width="10" height="60" as="geometry" />
        </mxCell>
        <mxCell id="aM9ryv3xv72pqoxQDRHE-6" value="" style="html=1;points=[];perimeter=orthogonalPerimeter;outlineConnect=0;targetShapes=umlLifeline;portConstraint=eastwest;newEdgeStyle={&quot;edgeStyle&quot;:&quot;elbowEdgeStyle&quot;,&quot;elbow&quot;:&quot;vertical&quot;,&quot;curved&quot;:0,&quot;rounded&quot;:0};" parent="aM9ryv3xv72pqoxQDRHE-5" vertex="1">
          <mxGeometry x="45" y="80" width="10" height="140" as="geometry" />
        </mxCell>
        <mxCell id="aM9ryv3xv72pqoxQDRHE-7" value="&lt;div&gt;disconnect()&lt;/div&gt;" style="html=1;verticalAlign=bottom;endArrow=block;edgeStyle=elbowEdgeStyle;elbow=vertical;curved=0;rounded=0;" parent="1" source="aM9ryv3xv72pqoxQDRHE-2" target="aM9ryv3xv72pqoxQDRHE-6" edge="1">
          <mxGeometry relative="1" as="geometry">
            <mxPoint x="215" y="130" as="sourcePoint" />
            <Array as="points">
              <mxPoint x="200" y="120" />
            </Array>
          </mxGeometry>
        </mxCell>
        <mxCell id="cc4XYzGoG_5n-Fmv61_O-1" value=":Socket" style="shape=umlLifeline;perimeter=lifelinePerimeter;whiteSpace=wrap;html=1;container=0;dropTarget=0;collapsible=0;recursiveResize=0;outlineConnect=0;portConstraint=eastwest;newEdgeStyle={&quot;edgeStyle&quot;:&quot;elbowEdgeStyle&quot;,&quot;elbow&quot;:&quot;vertical&quot;,&quot;curved&quot;:0,&quot;rounded&quot;:0};" parent="1" vertex="1">
          <mxGeometry x="500" y="40" width="100" height="260" as="geometry" />
        </mxCell>
        <mxCell id="cc4XYzGoG_5n-Fmv61_O-3" value="sendToAll(disconnection)" style="html=1;verticalAlign=bottom;endArrow=block;edgeStyle=elbowEdgeStyle;elbow=vertical;curved=0;rounded=0;" parent="1" edge="1" target="sexntVy-94tG_eXG7iy1-1" source="aM9ryv3xv72pqoxQDRHE-6">
          <mxGeometry relative="1" as="geometry">
            <mxPoint x="250" y="150" as="sourcePoint" />
            <Array as="points">
              <mxPoint x="300" y="130" />
            </Array>
            <mxPoint x="399.5" y="130" as="targetPoint" />
          </mxGeometry>
        </mxCell>
        <mxCell id="gZrCHBYVLg_YhAh_wo58-1" value=":ContactManager" style="shape=umlLifeline;perimeter=lifelinePerimeter;whiteSpace=wrap;html=1;container=0;dropTarget=0;collapsible=0;recursiveResize=0;outlineConnect=0;portConstraint=eastwest;newEdgeStyle={&quot;edgeStyle&quot;:&quot;elbowEdgeStyle&quot;,&quot;elbow&quot;:&quot;vertical&quot;,&quot;curved&quot;:0,&quot;rounded&quot;:0};" parent="1" vertex="1">
          <mxGeometry x="680" y="40" width="100" height="260" as="geometry" />
        </mxCell>
        <mxCell id="gZrCHBYVLg_YhAh_wo58-36" value="" style="html=1;points=[];perimeter=orthogonalPerimeter;outlineConnect=0;targetShapes=umlLifeline;portConstraint=eastwest;newEdgeStyle={&quot;edgeStyle&quot;:&quot;elbowEdgeStyle&quot;,&quot;elbow&quot;:&quot;vertical&quot;,&quot;curved&quot;:0,&quot;rounded&quot;:0};" parent="gZrCHBYVLg_YhAh_wo58-1" vertex="1">
          <mxGeometry x="45" y="150" width="10" height="30" as="geometry" />
        </mxCell>
        <mxCell id="gZrCHBYVLg_YhAh_wo58-2" value="&lt;div&gt;changeState(disconnected)&lt;/div&gt;" style="html=1;verticalAlign=bottom;endArrow=block;edgeStyle=elbowEdgeStyle;elbow=vertical;curved=0;rounded=0;" parent="1" edge="1" target="gZrCHBYVLg_YhAh_wo58-36" source="aM9ryv3xv72pqoxQDRHE-6">
          <mxGeometry x="-0.0625" relative="1" as="geometry">
            <mxPoint x="240" y="220" as="sourcePoint" />
            <Array as="points">
              <mxPoint x="290" y="200" />
              <mxPoint x="425" y="240" />
            </Array>
            <mxPoint x="726.5" y="240" as="targetPoint" />
            <mxPoint as="offset" />
          </mxGeometry>
        </mxCell>
        <mxCell id="gZrCHBYVLg_YhAh_wo58-37" value="return()" style="html=1;verticalAlign=bottom;endArrow=block;edgeStyle=elbowEdgeStyle;elbow=vertical;curved=0;rounded=0;dashed=1;" parent="1" edge="1" target="cc4XYzGoG_5n-Fmv61_O-27">
          <mxGeometry relative="1" as="geometry">
            <mxPoint x="735.5" y="220" as="sourcePoint" />
            <Array as="points">
              <mxPoint x="666" y="220" />
            </Array>
            <mxPoint x="335" y="220" as="targetPoint" />
          </mxGeometry>
        </mxCell>
        <mxCell id="j85xQhlPPARI3KzOtcpb-1" value="return()" style="html=1;verticalAlign=bottom;endArrow=block;edgeStyle=elbowEdgeStyle;elbow=vertical;curved=0;rounded=0;dashed=1;" parent="1" edge="1" target="aM9ryv3xv72pqoxQDRHE-2" source="aM9ryv3xv72pqoxQDRHE-6">
          <mxGeometry relative="1" as="geometry">
            <mxPoint x="325" y="260" as="sourcePoint" />
            <Array as="points">
              <mxPoint x="220" y="260" />
            </Array>
            <mxPoint x="109.5" y="260" as="targetPoint" />
          </mxGeometry>
        </mxCell>
        <mxCell id="VgFN2w11cG57oW9lGC4S-1" value="" style="html=1;points=[];perimeter=orthogonalPerimeter;outlineConnect=0;targetShapes=umlLifeline;portConstraint=eastwest;newEdgeStyle={&quot;edgeStyle&quot;:&quot;elbowEdgeStyle&quot;,&quot;elbow&quot;:&quot;vertical&quot;,&quot;curved&quot;:0,&quot;rounded&quot;:0};" parent="1" vertex="1">
          <mxGeometry x="325" y="500" width="10" height="60" as="geometry" />
        </mxCell>
        <mxCell id="VgFN2w11cG57oW9lGC4S-2" value=":Socket" style="shape=umlLifeline;perimeter=lifelinePerimeter;whiteSpace=wrap;html=1;container=0;dropTarget=0;collapsible=0;recursiveResize=0;outlineConnect=0;portConstraint=eastwest;newEdgeStyle={&quot;edgeStyle&quot;:&quot;elbowEdgeStyle&quot;,&quot;elbow&quot;:&quot;vertical&quot;,&quot;curved&quot;:0,&quot;rounded&quot;:0};" parent="1" vertex="1">
          <mxGeometry x="60" y="360" width="100" height="260" as="geometry" />
        </mxCell>
        <mxCell id="VgFN2w11cG57oW9lGC4S-4" value=":UDPServer" style="shape=umlLifeline;perimeter=lifelinePerimeter;whiteSpace=wrap;html=1;container=0;dropTarget=0;collapsible=0;recursiveResize=0;outlineConnect=0;portConstraint=eastwest;newEdgeStyle={&quot;edgeStyle&quot;:&quot;elbowEdgeStyle&quot;,&quot;elbow&quot;:&quot;vertical&quot;,&quot;curved&quot;:0,&quot;rounded&quot;:0};" parent="1" vertex="1">
          <mxGeometry x="280" y="360" width="100" height="260" as="geometry" />
        </mxCell>
        <mxCell id="VgFN2w11cG57oW9lGC4S-5" value="" style="html=1;points=[];perimeter=orthogonalPerimeter;outlineConnect=0;targetShapes=umlLifeline;portConstraint=eastwest;newEdgeStyle={&quot;edgeStyle&quot;:&quot;elbowEdgeStyle&quot;,&quot;elbow&quot;:&quot;vertical&quot;,&quot;curved&quot;:0,&quot;rounded&quot;:0};" parent="VgFN2w11cG57oW9lGC4S-4" vertex="1">
          <mxGeometry x="45" y="80" width="10" height="140" as="geometry" />
        </mxCell>
        <mxCell id="VgFN2w11cG57oW9lGC4S-6" value="&lt;div&gt;receive(disconnection)&lt;/div&gt;" style="html=1;verticalAlign=bottom;endArrow=block;edgeStyle=elbowEdgeStyle;elbow=vertical;curved=0;rounded=0;" parent="1" source="VgFN2w11cG57oW9lGC4S-2" target="VgFN2w11cG57oW9lGC4S-5" edge="1">
          <mxGeometry relative="1" as="geometry">
            <mxPoint x="215" y="450" as="sourcePoint" />
            <Array as="points">
              <mxPoint x="200" y="440" />
            </Array>
          </mxGeometry>
        </mxCell>
        <mxCell id="VgFN2w11cG57oW9lGC4S-7" value=":Agent" style="shape=umlLifeline;perimeter=lifelinePerimeter;whiteSpace=wrap;html=1;container=0;dropTarget=0;collapsible=0;recursiveResize=0;outlineConnect=0;portConstraint=eastwest;newEdgeStyle={&quot;edgeStyle&quot;:&quot;elbowEdgeStyle&quot;,&quot;elbow&quot;:&quot;vertical&quot;,&quot;curved&quot;:0,&quot;rounded&quot;:0};" parent="1" vertex="1">
          <mxGeometry x="680" y="360" width="100" height="260" as="geometry" />
        </mxCell>
        <mxCell id="VgFN2w11cG57oW9lGC4S-9" value=":ContactManager" style="shape=umlLifeline;perimeter=lifelinePerimeter;whiteSpace=wrap;html=1;container=0;dropTarget=0;collapsible=0;recursiveResize=0;outlineConnect=0;portConstraint=eastwest;newEdgeStyle={&quot;edgeStyle&quot;:&quot;elbowEdgeStyle&quot;,&quot;elbow&quot;:&quot;vertical&quot;,&quot;curved&quot;:0,&quot;rounded&quot;:0};" parent="1" vertex="1">
          <mxGeometry x="500" y="360" width="100" height="260" as="geometry" />
        </mxCell>
        <mxCell id="VgFN2w11cG57oW9lGC4S-10" value="" style="html=1;points=[];perimeter=orthogonalPerimeter;outlineConnect=0;targetShapes=umlLifeline;portConstraint=eastwest;newEdgeStyle={&quot;edgeStyle&quot;:&quot;elbowEdgeStyle&quot;,&quot;elbow&quot;:&quot;vertical&quot;,&quot;curved&quot;:0,&quot;rounded&quot;:0};" parent="VgFN2w11cG57oW9lGC4S-9" vertex="1">
          <mxGeometry x="45" y="90" width="10" height="90" as="geometry" />
        </mxCell>
        <mxCell id="VgFN2w11cG57oW9lGC4S-11" value="&lt;div&gt;changeState(ip, disconnected)&lt;/div&gt;" style="html=1;verticalAlign=bottom;endArrow=block;edgeStyle=elbowEdgeStyle;elbow=vertical;curved=0;rounded=0;" parent="1" target="VgFN2w11cG57oW9lGC4S-10" edge="1">
          <mxGeometry relative="1" as="geometry">
            <mxPoint x="335" y="450" as="sourcePoint" />
            <Array as="points">
              <mxPoint x="425" y="450" />
            </Array>
            <mxPoint x="726.5" y="450" as="targetPoint" />
          </mxGeometry>
        </mxCell>
        <mxCell id="VgFN2w11cG57oW9lGC4S-12" value="return()" style="html=1;verticalAlign=bottom;endArrow=block;edgeStyle=elbowEdgeStyle;elbow=vertical;curved=0;rounded=0;dashed=1;" parent="1" source="VgFN2w11cG57oW9lGC4S-10" edge="1">
          <mxGeometry relative="1" as="geometry">
            <mxPoint x="735.5" y="540" as="sourcePoint" />
            <Array as="points">
              <mxPoint x="440" y="540" />
            </Array>
            <mxPoint x="335" y="540" as="targetPoint" />
          </mxGeometry>
        </mxCell>
        <mxCell id="VgFN2w11cG57oW9lGC4S-13" value="return()" style="html=1;verticalAlign=bottom;endArrow=block;edgeStyle=elbowEdgeStyle;elbow=vertical;curved=0;rounded=0;dashed=1;" parent="1" edge="1">
          <mxGeometry relative="1" as="geometry">
            <mxPoint x="325" y="580" as="sourcePoint" />
            <Array as="points">
              <mxPoint x="220" y="580" />
            </Array>
            <mxPoint x="109.5" y="580" as="targetPoint" />
          </mxGeometry>
        </mxCell>
        <mxCell id="VgFN2w11cG57oW9lGC4S-14" value="notifyObservers()" style="html=1;verticalAlign=bottom;endArrow=open;edgeStyle=elbowEdgeStyle;elbow=vertical;curved=0;rounded=0;endFill=0;" parent="1" source="VgFN2w11cG57oW9lGC4S-10" target="VgFN2w11cG57oW9lGC4S-7" edge="1">
          <mxGeometry relative="1" as="geometry">
            <mxPoint x="550" y="494.5" as="sourcePoint" />
            <Array as="points">
              <mxPoint x="640" y="494.5" />
            </Array>
            <mxPoint x="760" y="494.5" as="targetPoint" />
          </mxGeometry>
        </mxCell>
        <mxCell id="sexntVy-94tG_eXG7iy1-1" value=":NetworkManager" style="shape=umlLifeline;perimeter=lifelinePerimeter;whiteSpace=wrap;html=1;container=0;dropTarget=0;collapsible=0;recursiveResize=0;outlineConnect=0;portConstraint=eastwest;newEdgeStyle={&quot;edgeStyle&quot;:&quot;elbowEdgeStyle&quot;,&quot;elbow&quot;:&quot;vertical&quot;,&quot;curved&quot;:0,&quot;rounded&quot;:0};" vertex="1" parent="1">
          <mxGeometry x="340" y="40" width="100" height="260" as="geometry" />
        </mxCell>
        <mxCell id="sexntVy-94tG_eXG7iy1-2" value="send(disconnection)" style="html=1;verticalAlign=bottom;endArrow=block;edgeStyle=elbowEdgeStyle;elbow=vertical;curved=0;rounded=0;" edge="1" parent="1" source="sexntVy-94tG_eXG7iy1-1" target="cc4XYzGoG_5n-Fmv61_O-1">
          <mxGeometry relative="1" as="geometry">
            <mxPoint x="410" y="150" as="sourcePoint" />
            <Array as="points">
              <mxPoint x="465" y="150" />
            </Array>
            <mxPoint x="555" y="150" as="targetPoint" />
          </mxGeometry>
        </mxCell>
        <mxCell id="sexntVy-94tG_eXG7iy1-3" value="" style="group" vertex="1" connectable="0" parent="1">
          <mxGeometry x="170" y="170" width="590" height="80" as="geometry" />
        </mxCell>
        <mxCell id="sexntVy-94tG_eXG7iy1-4" value="loop" style="shape=umlFrame;whiteSpace=wrap;html=1;pointerEvents=0;movable=1;resizable=1;rotatable=1;deletable=1;editable=1;locked=0;connectable=1;" vertex="1" parent="sexntVy-94tG_eXG7iy1-3">
          <mxGeometry width="590" height="60" as="geometry" />
        </mxCell>
        <mxCell id="sexntVy-94tG_eXG7iy1-5" value="" style="group" vertex="1" connectable="0" parent="sexntVy-94tG_eXG7iy1-3">
          <mxGeometry width="590" height="80" as="geometry" />
        </mxCell>
        <mxCell id="sexntVy-94tG_eXG7iy1-6" value="" style="line;strokeWidth=1;fillColor=none;align=left;verticalAlign=middle;spacingTop=-1;spacingLeft=3;spacingRight=3;rotatable=0;labelPosition=right;points=[];portConstraint=eastwest;strokeColor=inherit;" vertex="1" parent="sexntVy-94tG_eXG7iy1-5">
          <mxGeometry x="91.55172413793103" y="22.857142857142854" width="101.7241379310345" height="1.9047619047619047" as="geometry" />
        </mxCell>
        <mxCell id="sexntVy-94tG_eXG7iy1-7" value="[For Agent in Agents]" style="text;html=1;align=center;verticalAlign=middle;resizable=1;points=[];autosize=1;strokeColor=none;fillColor=none;movable=1;rotatable=1;deletable=1;editable=1;locked=0;connectable=1;" vertex="1" parent="sexntVy-94tG_eXG7iy1-5">
          <mxGeometry x="71.20587184244135" y="10" width="142.41379310344826" height="7.1428571428571415" as="geometry" />
        </mxCell>
      </root>
    </mxGraphModel>
  </diagram>
</mxfile>
